<?xml version="1.0" encoding="UTF-8" standalone="no"?><!DOCTYPE svg PUBLIC "-//W3C//DTD SVG 1.1//EN" "http://www.w3.org/Graphics/SVG/1.1/DTD/svg11.dtd"><svg width="100%" height="100%" viewBox="0 0 137 30" version="1.1" xmlns="http://www.w3.org/2000/svg" xmlns:xlink="http://www.w3.org/1999/xlink" xml:space="preserve" xmlns:serif="http://www.serif.com/" style="fill-rule:evenodd;clip-rule:evenodd;stroke-linejoin:round;stroke-miterlimit:2;"><g><path d="M18,27.212l4.711,-0l0,-18.212l-2.265,-0l-0,-2.232l-4.68,-0l-0,2.232l-4.32,-0l-0,-2.232l-4.68,-0l-0,2.232l-4.32,-0l-0,-2.232l-2.446,-0l-0,20.444l4.711,-0l0,-15.769l2.235,0l-0,-2.232l2.054,0l-0,18.001l4.711,-0l0,-15.769l2.235,0l-0,-2.232l2.054,0l-0,18.001Z" style="fill:#333;fill-rule:nonzero;"/><path d="M37.222,27.211l2.445,0l0,-18.211l-2.265,-0l-0,-2.232l-9.178,-0l-0,2.232l-2.268,-0l-0,4.711l4.711,0l0,-4.5l4.289,0l-0,6.557l-6.732,-0l-0,2.232l-2.268,-0l-0,6.943l2.268,0l-0,2.268l6.948,0l-0,-2.263l2.05,-0l-0,2.263Zm-2.266,-9l-0,6.557l-4.289,-0l0,-6.557l4.289,0Z" style="fill:#333;fill-rule:nonzero;"/><path d="M51.912,13.712l4.711,-0l0,-4.712l-2.265,-0l-0,-2.232l-4.678,-0l-0,2.232l-4.322,-0l-0,-2.232l-2.446,-0l-0,20.444l4.711,-0l0,-15.769l2.235,0l-0,-2.232l2.054,0l-0,4.501Z" style="fill:#333;fill-rule:nonzero;"/><path d="M71.314,24.943l2.265,0l0,-4.675l-4.711,-0l-0,4.5l-4.289,-0l0,-15.557l4.289,0l-0,4.5l4.711,0l0,-4.711l-2.265,-0l-0,-2.232l-9.18,-0l-0,2.232l-2.266,-0l-0,15.943l2.266,0l-0,2.268l9.18,0l-0,-2.268Z" style="fill:#333;fill-rule:nonzero;"/><path d="M88.09,27.211l2.445,0l0,-27.211l-4.711,-0l-0,9l-2.054,-0l-0,-2.232l-4.68,-0l-0,2.232l-2.266,-0l-0,15.943l2.266,0l-0,2.268l4.68,0l-0,-2.268l4.32,0l-0,2.268Zm-2.266,-15.768l-0,11.057l-2.234,-0l-0,2.268l-2.055,-0l0,-15.557l2.055,0l-0,2.232l2.234,0Z" style="fill:#333;fill-rule:nonzero;"/><path d="M96.046,27.211l4.677,0l0,-2.443l-2.232,-0l0,-24.768l-4.711,-0l-0,24.948l2.266,-0l-0,2.263Z" style="fill:#333;fill-rule:nonzero;"/><path d="M114.334,24.943l2.265,0l0,-4.675l-4.711,-0l-0,4.5l-4.289,-0l0,-15.557l4.289,0l-0,4.5l4.711,0l0,-4.711l-2.265,-0l-0,-2.232l-9.18,-0l-0,2.232l-2.266,-0l-0,15.943l2.266,0l-0,2.268l9.18,0l-0,-2.268Z" style="fill:#333;fill-rule:nonzero;"/><path d="M133.915,18.211l2.232,0l0,-2.443l-2.232,-0l0,-2.268l-2.268,-0l0,-2.232l-2.231,-0l-0,-2.268l-2.269,-0l0,-2.232l-2.232,-0l0,-2.268l-4.711,-0l0,2.443l2.268,0l-0,2.268l2.232,0l-0,2.232l2.268,0l-0,2.268l2.232,0l-0,2.232l2.268,0l-0,2.057l-2.268,-0l-0,2.268l-2.232,-0l-0,2.232l-2.268,-0l-0,2.268l-2.232,-0l-0,2.232l-2.268,-0l0,2.443l4.711,0l0,-2.232l2.232,0l0,-2.268l2.269,0l-0,-2.232l2.231,0l0,-2.268l2.268,0l0,-2.232Z" style="fill:#333;fill-rule:nonzero;"/></g></svg>